<svg width="175" height="61" viewBox="0 0 175 61" fill="none" xmlns="http://www.w3.org/2000/svg">
<path d="M26.8613 35.6719V57H22.4814V35.6719H26.8613ZM33.4238 35.6719V39.1143H16.0215V35.6719H33.4238ZM43.4932 53.4258V46.3652C43.4932 45.8574 43.4102 45.4229 43.2441 45.0615C43.0781 44.6904 42.8193 44.4023 42.4678 44.1973C42.126 43.9922 41.6816 43.8896 41.1348 43.8896C40.666 43.8896 40.2607 43.9727 39.9189 44.1387C39.5771 44.2949 39.3135 44.5244 39.1279 44.8271C38.9424 45.1201 38.8496 45.4668 38.8496 45.8672H34.6309C34.6309 45.1934 34.7871 44.5537 35.0996 43.9482C35.4121 43.3428 35.8662 42.8105 36.4619 42.3516C37.0576 41.8828 37.7656 41.5166 38.5859 41.2529C39.416 40.9893 40.3438 40.8574 41.3691 40.8574C42.5996 40.8574 43.6934 41.0625 44.6504 41.4727C45.6074 41.8828 46.3594 42.498 46.9062 43.3184C47.4629 44.1387 47.7412 45.1641 47.7412 46.3945V53.1768C47.7412 54.0459 47.7949 54.7588 47.9023 55.3154C48.0098 55.8623 48.166 56.3408 48.3711 56.751V57H44.1084C43.9033 56.5703 43.7471 56.0332 43.6396 55.3887C43.542 54.7344 43.4932 54.0801 43.4932 53.4258ZM44.0498 47.3467L44.0791 49.7344H41.7207C41.1641 49.7344 40.6807 49.7979 40.2705 49.9248C39.8604 50.0518 39.5234 50.2324 39.2598 50.4668C38.9961 50.6914 38.8008 50.9551 38.6738 51.2578C38.5566 51.5605 38.498 51.8926 38.498 52.2539C38.498 52.6152 38.5811 52.9424 38.7471 53.2354C38.9131 53.5186 39.1523 53.7432 39.4648 53.9092C39.7773 54.0654 40.1436 54.1436 40.5635 54.1436C41.1982 54.1436 41.75 54.0166 42.2188 53.7627C42.6875 53.5088 43.0488 53.1963 43.3027 52.8252C43.5664 52.4541 43.7031 52.1025 43.7129 51.7705L44.8262 53.5576C44.6699 53.958 44.4551 54.373 44.1816 54.8027C43.918 55.2324 43.5811 55.6377 43.1709 56.0186C42.7607 56.3896 42.2676 56.6973 41.6914 56.9414C41.1152 57.1758 40.4316 57.293 39.6406 57.293C38.6348 57.293 37.7217 57.0928 36.9014 56.6924C36.0908 56.2822 35.4463 55.7207 34.9678 55.0078C34.499 54.2852 34.2646 53.4648 34.2646 52.5469C34.2646 51.7168 34.4209 50.9795 34.7334 50.335C35.0459 49.6904 35.5049 49.1484 36.1104 48.709C36.7256 48.2598 37.4922 47.9229 38.4102 47.6982C39.3281 47.4639 40.3926 47.3467 41.6035 47.3467H44.0498ZM55.8916 41.1504L58.5137 45.9697L61.209 41.1504H65.7061L61.2236 48.8994L65.9111 57H61.3994L58.543 51.9023L55.6865 57H51.1748L55.8623 48.8994L51.3799 41.1504H55.8916ZM73.71 41.1504V57H69.4766V41.1504H73.71ZM69.2129 37.0195C69.2129 36.4043 69.4277 35.8965 69.8574 35.4961C70.2871 35.0957 70.8633 34.8955 71.5859 34.8955C72.2988 34.8955 72.8701 35.0957 73.2998 35.4961C73.7393 35.8965 73.959 36.4043 73.959 37.0195C73.959 37.6348 73.7393 38.1426 73.2998 38.543C72.8701 38.9434 72.2988 39.1436 71.5859 39.1436C70.8633 39.1436 70.2871 38.9434 69.8574 38.543C69.4277 38.1426 69.2129 37.6348 69.2129 37.0195ZM96.2803 47.6396H90.8018L90.7725 44.6221H95.3721C96.1826 44.6221 96.8467 44.5195 97.3643 44.3145C97.8818 44.0996 98.2676 43.792 98.5215 43.3916C98.7852 42.9814 98.917 42.4834 98.917 41.8975C98.917 41.2334 98.79 40.6963 98.5361 40.2861C98.292 39.876 97.9062 39.5781 97.3789 39.3926C96.8613 39.207 96.1924 39.1143 95.3721 39.1143H92.3252V57H87.9307V35.6719H95.3721C96.6123 35.6719 97.7207 35.7891 98.6973 36.0234C99.6836 36.2578 100.519 36.6143 101.202 37.0928C101.886 37.5713 102.408 38.1768 102.77 38.9092C103.131 39.6318 103.312 40.4912 103.312 41.4873C103.312 42.3662 103.111 43.1768 102.711 43.9189C102.32 44.6611 101.7 45.2666 100.851 45.7354C100.011 46.2041 98.9121 46.4629 97.5547 46.5117L96.2803 47.6396ZM96.0898 57H89.6006L91.3145 53.5723H96.0898C96.8613 53.5723 97.4912 53.4502 97.9795 53.2061C98.4678 52.9521 98.8291 52.6104 99.0635 52.1807C99.2979 51.751 99.415 51.2578 99.415 50.7012C99.415 50.0762 99.3076 49.5342 99.0928 49.0752C98.8877 48.6162 98.5557 48.2646 98.0967 48.0205C97.6377 47.7666 97.0322 47.6396 96.2803 47.6396H92.0469L92.0762 44.6221H97.3496L98.3604 45.8086C99.6592 45.7891 100.704 46.0186 101.495 46.4971C102.296 46.9658 102.877 47.5762 103.238 48.3281C103.609 49.0801 103.795 49.8857 103.795 50.7451C103.795 52.1123 103.497 53.2646 102.901 54.2021C102.306 55.1299 101.432 55.8281 100.279 56.2969C99.1367 56.7656 97.7402 57 96.0898 57ZM107.653 49.2363V48.9287C107.653 47.7666 107.819 46.6973 108.151 45.7207C108.483 44.7344 108.967 43.8799 109.602 43.1572C110.236 42.4346 111.018 41.873 111.945 41.4727C112.873 41.0625 113.938 40.8574 115.139 40.8574C116.34 40.8574 117.409 41.0625 118.347 41.4727C119.284 41.873 120.07 42.4346 120.705 43.1572C121.35 43.8799 121.838 44.7344 122.17 45.7207C122.502 46.6973 122.668 47.7666 122.668 48.9287V49.2363C122.668 50.3887 122.502 51.458 122.17 52.4443C121.838 53.4209 121.35 54.2754 120.705 55.0078C120.07 55.7305 119.289 56.292 118.361 56.6924C117.434 57.0928 116.369 57.293 115.168 57.293C113.967 57.293 112.897 57.0928 111.96 56.6924C111.032 56.292 110.246 55.7305 109.602 55.0078C108.967 54.2754 108.483 53.4209 108.151 52.4443C107.819 51.458 107.653 50.3887 107.653 49.2363ZM111.872 48.9287V49.2363C111.872 49.9004 111.931 50.5205 112.048 51.0967C112.165 51.6729 112.351 52.1807 112.604 52.6201C112.868 53.0498 113.21 53.3867 113.63 53.6309C114.05 53.875 114.562 53.9971 115.168 53.9971C115.754 53.9971 116.257 53.875 116.677 53.6309C117.097 53.3867 117.434 53.0498 117.688 52.6201C117.941 52.1807 118.127 51.6729 118.244 51.0967C118.371 50.5205 118.435 49.9004 118.435 49.2363V48.9287C118.435 48.2842 118.371 47.6787 118.244 47.1123C118.127 46.5361 117.937 46.0283 117.673 45.5889C117.419 45.1396 117.082 44.7881 116.662 44.5342C116.242 44.2803 115.734 44.1533 115.139 44.1533C114.543 44.1533 114.035 44.2803 113.615 44.5342C113.205 44.7881 112.868 45.1396 112.604 45.5889C112.351 46.0283 112.165 46.5361 112.048 47.1123C111.931 47.6787 111.872 48.2842 111.872 48.9287ZM126.087 49.2363V48.9287C126.087 47.7666 126.253 46.6973 126.585 45.7207C126.917 44.7344 127.4 43.8799 128.035 43.1572C128.67 42.4346 129.451 41.873 130.379 41.4727C131.307 41.0625 132.371 40.8574 133.572 40.8574C134.773 40.8574 135.843 41.0625 136.78 41.4727C137.718 41.873 138.504 42.4346 139.139 43.1572C139.783 43.8799 140.271 44.7344 140.604 45.7207C140.936 46.6973 141.102 47.7666 141.102 48.9287V49.2363C141.102 50.3887 140.936 51.458 140.604 52.4443C140.271 53.4209 139.783 54.2754 139.139 55.0078C138.504 55.7305 137.723 56.292 136.795 56.6924C135.867 57.0928 134.803 57.293 133.602 57.293C132.4 57.293 131.331 57.0928 130.394 56.6924C129.466 56.292 128.68 55.7305 128.035 55.0078C127.4 54.2754 126.917 53.4209 126.585 52.4443C126.253 51.458 126.087 50.3887 126.087 49.2363ZM130.306 48.9287V49.2363C130.306 49.9004 130.364 50.5205 130.481 51.0967C130.599 51.6729 130.784 52.1807 131.038 52.6201C131.302 53.0498 131.644 53.3867 132.063 53.6309C132.483 53.875 132.996 53.9971 133.602 53.9971C134.188 53.9971 134.69 53.875 135.11 53.6309C135.53 53.3867 135.867 53.0498 136.121 52.6201C136.375 52.1807 136.561 51.6729 136.678 51.0967C136.805 50.5205 136.868 49.9004 136.868 49.2363V48.9287C136.868 48.2842 136.805 47.6787 136.678 47.1123C136.561 46.5361 136.37 46.0283 136.106 45.5889C135.853 45.1396 135.516 44.7881 135.096 44.5342C134.676 44.2803 134.168 44.1533 133.572 44.1533C132.977 44.1533 132.469 44.2803 132.049 44.5342C131.639 44.7881 131.302 45.1396 131.038 45.5889C130.784 46.0283 130.599 46.5361 130.481 47.1123C130.364 47.6787 130.306 48.2842 130.306 48.9287ZM149.413 34.4854V57H145.194V34.4854H149.413ZM159.403 41.1504L152.519 49.002L148.827 52.7373L147.289 49.6904L150.219 45.9697L154.335 41.1504H159.403ZM155.023 57L150.336 49.6758L153.251 47.127L159.887 57H155.023Z" fill="#111111"/>
<path d="M99.3398 13.1875H96.3438L95.4805 11.1055C94.6172 8.92188 92.5352 7.5 90.1992 7.5H83.75C81.4141 7.5 79.332 8.92188 78.4688 11.1055L77.6055 13.1875H74.6094C74.2031 13.1875 73.8984 13.5938 74 13.9492L74.3047 15.168C74.3555 15.4727 74.6094 15.625 74.9141 15.625H75.9297C75.2188 16.2344 74.8125 17.0977 74.8125 18.0625V20.5C74.8125 21.3633 75.1172 22.0742 75.625 22.6328V25.375C75.625 26.2891 76.3359 27 77.25 27H78.875C79.7383 27 80.5 26.2891 80.5 25.375V23.75H93.5V25.375C93.5 26.2891 94.2109 27 95.125 27H96.75C97.6133 27 98.375 26.2891 98.375 25.375V22.6328C98.832 22.0742 99.1875 21.3633 99.1875 20.5V18.0625C99.1875 17.0977 98.7305 16.2344 98.0195 15.625H99.0859C99.3398 15.625 99.5938 15.4727 99.6445 15.168L99.9492 13.9492C100.051 13.5938 99.7461 13.1875 99.3398 13.1875ZM81.4648 12.3242C81.8711 11.3594 82.7344 10.75 83.75 10.75H90.1992C91.2148 10.75 92.0781 11.3594 92.4844 12.3242L93.5 14.8125H80.5L81.4648 12.3242ZM78.875 20.5C77.8594 20.5 77.25 19.8906 77.25 18.875C77.25 17.9102 77.8594 17.25 78.875 17.25C79.8398 17.25 81.3125 18.7227 81.3125 19.6875C81.3125 20.6523 79.8398 20.5 78.875 20.5ZM95.125 20.5C94.1094 20.5 92.6875 20.6523 92.6875 19.6875C92.6875 18.7227 94.1094 17.25 95.125 17.25C96.0898 17.25 96.75 17.9102 96.75 18.875C96.75 19.8906 96.0898 20.5 95.125 20.5Z" fill="#111111"/>
</svg>
